<?xml version="1.0" encoding="UTF-8" standalone="no"?><svg xmlns="http://www.w3.org/2000/svg" xmlns:xlink="http://www.w3.org/1999/xlink" fill="#d8a790" height="939.5" preserveAspectRatio="xMidYMid meet" version="1" viewBox="18.8 20.9 972.2 939.5" width="972.2" zoomAndPan="magnify"><g data-name="1" id="change1_1"><path d="M523,68.67c21.92,17.45,38,37.64,49.49,62.71C592.4,84.59,620,45.43,665.91,20.88c3.07,5.29,3.32,10.48,3.47,15.51.65,21.22-.17,42.26-6.39,62.87-10.88,36.05-22.8,71.66-43.2,103.69-9.3,14.59-20,28.21-32.89,39.8a40.09,40.09,0,0,0-11.53,18.08c-5.37,16.06-7.16,32.73-10.85,52.18C593,288.68,620.6,267.9,656.9,261.25c3.21,14.95,1.18,28.84-2.42,42.59-16.52,63-55.78,108-111.24,139.94-7.63,4.39-12.21,9.75-15,18.13-7.29,22-15.49,43.72-24,67.48,12.62-8,23.3-15.51,34.64-21.82,13.54-7.55,27.57-14.4,43-17.38a57.52,57.52,0,0,0,21.41-8.81c14-9.39,27.72-19.14,40.36-30.38,4.34-3.86,6-7.81,5.62-13.52-2.62-38.54,15.7-68.33,41.35-94.18,17-17.14,35.12-33.45,59.48-40.24,7.1-2,14-4.08,21.3-2.33,3.8,6.63-.9,12.1-1.57,17.83-5.6,47.76-32.09,82.86-69.1,111.11-9.67,7.39-21.11,12.18-32.76,15.25-10.55,2.77-18.42,8.77-26.1,15.71-2.82,2.55-5.75,5-10.26,8.89,13.64-.67,24.11-6.15,35.24-8.56,13.5-2.91,26.89-6.29,40.65-7.59a47.85,47.85,0,0,0,26.83-11.84c25.41-21.8,55.44-28.87,87.79-29.14,5.6-.05,9.41-1.87,13.44-6,27-27.41,59-46.22,97-54.11,19.18-4,38.39-4.58,58.49.47-4.9,46.51-39.17,68.95-73.37,92.57,5.68,7.81,14.36,12.53,19.78,21.13-6.27,13.3-19,19.1-31.52,24.51-32.68,14.17-66.5,15.36-101.53,10-28.68-4.38-51.6-18.87-73.52-35.81-7.16-5.54-13.69-6.83-22.4-6-26.38,2.64-51.49,10.31-76.62,18-6.86,2.09-13.8,4.65-21,10.88,16.89,1.47,30.59,8.51,46.68,7.87a163.65,163.65,0,0,1,97.14,26.68c29.87,19.5,51.75,46.58,64.76,80.24a29.52,29.52,0,0,1,1.31,5,12.43,12.43,0,0,1,0,2.58c-1.26,3-3.91,4.53-6.74,5.59-25.52,9.53-50.86,8.66-75.61-2.38-30-13.4-56.05-32.16-76.2-58.48-10.31-13.45-19.14-27.84-23.4-44.36-2-7.88-6.3-11.27-13.89-12.9-24.12-5.21-47-2.65-69.11,8.59-13.88,7-27.45,14.29-39.8,23.93a95.52,95.52,0,0,0-28.07,34.87c-21,44.21-48.32,84.57-75.46,125-14.34,21.38-31.93,40.35-49,59.94,3.32,1.17,5.54-.4,7.88-1.33,26.46-10.51,52.68-21.59,80.34-28.89,11.41-3,20.61-10.62,29.25-18.55,3.09-2.84,3.73-6.71,4.46-10.53,6.37-33.58,24.41-59.33,52.49-78.39,20.83-14.16,42.48-26.45,67.49-31.84,12.69-2.73,25.36-4.78,39-3.63,1.38,8.67-2.62,15.68-6.13,22.15C611,649.48,569.6,682.73,515.65,700.72c-7.42,2.47-15,4.32-22.84,4.24-5.84-.06-9.83,2.33-14.24,7.27,10.63,2.12,20.36-.18,29.72-1.29,25-3,49.91-4.06,74.92-1.71a25.63,25.63,0,0,0,17.12-4.3c29.85-19.58,62.86-20.48,96.15-14.4,32.86,6,62.08,21,87.44,42.86,11.12,9.59,20.34,21,28.34,32.38-.84,4.7-4,5.45-6.61,6.77a130.58,130.58,0,0,1-51,13.47c-24.58,1.4-49.28.7-73.13-6.76-33.06-10.34-62.91-25.93-84.28-54.38-4.22-5.62-9-8.37-16.13-9-36.86-3.24-73.12.55-109.34,7.2-41.21,7.57-79.55,23.26-116.36,42.24-17.69,9.12-35.34,19.57-52.09,35,19.15-.29,35.93,4.41,52.79-5.41,34.21-19.93,72-22,109.37-13.68,37.59,8.35,70.89,26.67,97.12,56.59-3.18,8.55-10.19,12.8-17.59,16.16a264.09,264.09,0,0,1-76.27,22.09c.41,5.59,5.44,8.46,7.63,13.64-1.61,6-6,10.62-11.43,14.29-35.15,23.56-73.69,30.14-115,23.27-26.27-4.37-48.51-17.41-70.21-31.71-6.11-4-12.78-7.29-17.58-13.1s-10.67-6-17.61-4.44c-21.79,4.82-41.45,14.3-60.37,25.81-14.17,8.61-25.87,20.06-37.62,31.46-8.86,8.6-17.23,17.71-27.95,25.09-.73-5.32,2.6-7.74,5.17-10.39,9.95-10.2,19.89-20.41,30.08-30.36,6.33-6.17,11.18-13.09,13.62-21.64,1.4-4.9,1.5-9.74-3-13-15.26-11.07-22.84-27.95-32.53-43.09-24.41-38.13-26.37-78.49-9.84-120.13,4.33-10.89,12-19.88,17.19-29.68,6-1.69,8.34,2.88,11.58,5.36,31.57,24.19,46.93,56.53,48.4,96,.56,15.16.31,30.11-3,45a103.93,103.93,0,0,1-13.66,33.35c-4.54,7.19-9,14.56-6.95,25.27,8-4.66,13-11,18.33-16.81,3.5-3.82,6.5-8.25,10.53-11.39,21.08-16.42,25.81-40.27,28.43-64.42,2.14-19.69,2.12-39.65,2.37-59.5.48-38.13-6.73-74.65-23.77-109.07-3.64-7.36-7.42-13.27-16.71-13.43-2.88,0-5.91-1.46-8.55-2.86-4.8-2.55-9.2-2.42-14.69-1.53-21.19,3.41-42.59,2-62.73-5C77.15,602,47.92,586.47,27.31,558.41c-3.34-4.55-6.56-9-8.5-15.56C47.46,528,77.94,526.9,110.33,530c-2-9.81-3.65-19.28-6-28.56-4.81-18.89-5.18-37.49,1.72-56,3.27-8.78,4.33-11.09,12.83-20.45,4.09-.81,7.6,1.28,11,3,32.34,16.14,60.23,37.91,78.28,69.56,11.21,19.65,15.88,42,14.42,64.91-1,16.37-3.37,32.69-9.44,48.1-2.09,5.3-1.39,9.49.84,14.68,11.41,26.61,21.81,53.53,25.3,82.66,1.48,12.41,1.22,24.9,2.39,38.72,7.15-6.36,11.52-12.51,12.16-21.16A147.57,147.57,0,0,1,267,674.27a36.74,36.74,0,0,0,3.61-20c-4.69-44.14,8.72-83.39,32.76-119.76,10.53-15.94,21.73-31.16,37.22-42.79a35.65,35.65,0,0,1,14.09-7c7,35.15,4.34,70.06-.6,106,16.54-3.67,32.16-6.16,47.9-4.13,3.29,4.33,1.53,8.62.49,12.67-10.49,40.81-29.89,75.32-64.23,101.85-23.52,18.18-48.51,30.81-77.17,37.2-12,2.67-14.78,13.55-18.34,22.88-3.38,8.88-3.93,18.58-3.39,28.13.87,15.34-2.17,30.07-6.17,44.73-.75,2.75-2.86,5.41-1.28,8.68,3.61,1.08,5.55-1.78,7.58-3.64,18.52-17,39.22-31.06,59.59-45.65,12.29-8.8,25.83-16,37.24-25.61,12.77-10.81,23.63-24,34.93-36.42,31.77-35.07,55.61-75.78,81.16-115.25,6.32-9.76,11.5-20.28,16.94-30.58,8.47-16,9-26.65,2.57-45.23-35.2-2.59-57-24.66-75-52.54-13.48-20.92-23.53-43.23-28.23-67.67a183.6,183.6,0,0,1-2.28-51.59A66.26,66.26,0,0,1,374.56,342a94.49,94.49,0,0,1,42.13,18.83c38.88,30.63,64,69.7,67.13,120.58.72,11.76-1.26,23.44-3.94,34.65-3.2,13.34.66,25.21,3.56,39.91,7.22-11.29,10.53-22,14.92-32,10.17-23.38,18.16-47.57,26.15-71.77,1.21-3.64.72-6.6-.12-10-9.51-38.24.36-72.71,21.53-104.48a89.4,89.4,0,0,0,13.56-33.26c1.38-7.2,1.6-14.68,3.58-21.68,3-10.4-.08-17.65-9.36-22.54-26.32-13.89-36.82-39-45.79-65-12.45-36.15-8.49-71.45,6.16-106.08C516.73,82.88,518.2,76.06,523,68.67ZM120.14,431.18c-9.69,14.4-13.66,29.85-12.41,46,1.64,21.12,6.1,41.71,15.42,61.15,9.79,20.45,21.45,39.46,37.85,55.26,9.59,9.24,20.18,17,35.68,20.89-8.56-25.41-14-49.72-26.47-71.58-4.49-7.87-8.65-15.94-12.83-24-1.6-3.07-2.39-6.23,2.29-9.38,8.26,17.31,18.88,32.46,26,49.51,7,16.87,10.7,35,19.08,52.51C236.37,534.5,200.49,464.93,120.14,431.18Zm146.72,441.5c-.78,4.65,2.3,6.72,4.67,8.45,8.36,6.1,16.78,12.15,25.55,17.62,15.07,9.38,30.94,16.89,48.46,20.91,29.51,6.76,58.38,4.43,86.61-5.58,13.29-4.72,25.94-11.15,35.1-22.44-43.71-60.59-152.84-72.77-199-25.95,13.33,4.78,26.86,6.69,40.24,9.35,23.76,4.71,48.05,4.85,71.91,8.63,2.58.41,6.07-.44,8.05,5.33A504.22,504.22,0,0,1,266.86,872.68ZM733,456.74c57.91,60.93,163,46,195,11.42-42.66-55.56-146.76-67.32-192-17.63,20.11,7,41.73,3.25,61.78,9.49-1,2.25-2.26,2.56-3.5,2.55C774.49,462.44,755,459.37,733,456.74ZM470.25,524.87c28.46-77.59-42.64-169.88-91.81-173.51-4.85,10.4-6.71,28.31-5.73,45.51,1.88,33.31,14.59,62.8,32.24,90.27,10.53,16.4,23.6,30.9,41.66,39.69,4.73,2.31,9.56,5.42,16.08,3.35a108.53,108.53,0,0,0-13.23-25.93c-13.58-19-24.65-39.45-34.51-60.53-6.57-14-12.79-28.3-15.87-43.64-.68-3.42-1.37-7.18,5-7.1C415.25,442,444.25,482.3,470.25,524.87ZM707.39,744.11c-.12.9-.24,1.79-.35,2.69-8.47.7-16.78-.83-25-2.72-24.48-5.58-48.3-13.06-70.79-24.41-2.1-1.06-4.61-2.72-6.69.3C628.76,771,756,800.37,801.64,765.39a18.64,18.64,0,0,0-1.85-3.37c-41.88-49.66-94.16-74.19-159.83-65.18-12,1.65-24.68,3.29-35,13.83,17.31,6.91,32.87,15.32,49.9,20.05C672.3,735.54,689.89,739.68,707.39,744.11Zm-153.3,95.53C496.22,776,399.39,769.77,349.33,807c47,18.38,95.14,24.45,145.59,19.9-2.34,5.56-6,5-9.19,5.46-39.69,5.16-78.29-.52-116.32-11.75-4.38-1.3-8.54-3.57-14.33-2.07,5.89,5.71,10.21,12.64,17.89,13.4,27.46,2.73,51.62,13.63,73.59,29.42,10.44,7.5,21.21,8.36,33,6.72,19.82-2.74,38.69-8.79,57-16.56C542.8,848.88,549.27,846.18,554.09,839.64Zm97.1-568.54c-1.7-.49-2.56-1-3.28-.89a41.66,41.66,0,0,0-6.22,1.67c-38.17,13.66-69,36.95-91.5,70.74-15,22.45-23.41,47-22.4,74.32.1,2.83-.18,5.74,2.42,8.19,21.42-39.29,56.25-86.71,68.7-93.65-.36,5.31-4.44,8.25-7.37,11.84-17.73,21.78-34.1,44.51-47.53,69.22-4.23,7.8-8.55,15.74-8.15,25.26,5.38,1.49,8.72-1.65,12.34-3.69,9.43-5.33,17.7-12.22,26-19.08,37.06-30.52,62.83-68.27,74.73-115.11A77,77,0,0,0,651.19,271.1Zm118.2,321.17c-3.24,3.26-5.39,2.09-7.15,1.16-25.14-13.31-50.4-26.46-71.77-45.66-12.53-11.26-24.39-23.27-37.88-33.44-1.43-1.08-2.57-3.92-5.18-1.21,0,5.79,2.93,10.58,5.47,15.56,7,13.64,16.57,25.37,27.11,36.2,23,23.6,49.7,41.39,82,49.75,17.75,4.59,34.68,1.26,52.41-4.87-15-38.67-39.13-68.52-74.32-87.79-30.56-16.74-72-23.38-88-16.22,20.55,14.38,36.18,33.08,55.47,47.53S748.45,579.35,769.39,592.27Zm-504.81,137c66.28-9.67,131.86-85.19,129.82-136.47C328,585.71,257.18,669.44,262.57,719.67,275,706.43,284,691.05,296.94,679s23.51-26.54,40.42-33.85C312.54,672.08,284.45,696,264.58,729.29ZM154.86,762c1,12.57,2.82,24.79,4.74,37,2,12.79,4.06,25.57,6.37,38.31,2.14,11.85.69,24.46,6.58,36.35C211.41,823,194.92,728.3,143.14,700.5c-1,.67-2.39,1.16-3,2.15-25.58,39.76-29.57,81.18-8.22,123.89,6.72,13.46,15.29,26,23.19,38.85,1.45,2.36,3,5.23,7.72,5.19.15-13-2.9-25.51-4.51-38.1-2.46-19.24-5.36-38.43-7.64-57.69C150.16,770.54,148.48,765.41,154.86,762ZM538.4,159.54c9.36,11.2,5,22.67,8.18,32.3,3.33,10.17,3.79,21.12,8.84,30.95,4.77,9.31,6.73,20,13.75,28.84,25.37-51.42,1.74-141.24-43.94-170.91-1,1.24-2.58,2.34-3.11,3.81-2.47,6.9-4.61,13.91-7,20.85C499.8,150.3,508,192,532.08,231.69c6.49,10.7,16.58,16.6,29.17,24.33-6.7-17.39-13.31-31.78-17.72-46.82S537.37,178.4,538.4,159.54ZM636.14,76c3.15,3,2.51,5,1.85,7.09-9.69,30.16-24.06,58.1-40.47,85.07-6.7,11-13.61,21.48-10.91,35.82,1.3,6.89-1.36,14.5-2.15,21.79-.29,2.76-2.52,5.74.69,8.22C620,211.78,677,78.15,660.84,32.56c-4.76,0-7.7,3.56-11.09,6-29.31,21.34-49.75,49.47-65.46,82-8.82,18.24-5.31,34.51.93,53.09,13.38-14.64,18.92-32.17,28.1-47.51C622.72,110.45,625.78,91.79,636.14,76Zm-.43,508.56c-11-2-21.38,1.1-31.55,3.65-29.4,7.39-54.45,22.84-77.38,42.39-16.34,13.95-26.25,31.6-32.66,51.59-.78,2.43-2.83,5.55,1.19,8.49,14.28-15,31.38-26.81,47.56-39.66,15.85-12.58,31.13-26.23,50.72-36.89-.34,6.26-3.35,7.94-6,9.9-8.64,6.42-17.31,12.81-25.89,19.32-16.48,12.53-31.37,27-48.24,39.1-4.92,3.53-10.3,7.47-12.26,14.35C556.9,687.92,620.47,634.56,635.71,584.57Zm80.76-223C702.91,388.51,681.25,410,666,437c42.73-6.2,96.67-67.59,97.34-129.06-8.93,1.88-17.61,2.89-25.92,7.28-24.91,13.19-44.69,32-61.14,54.46-8.44,11.52-14.94,24.27-18.12,38.34-1.91,8.46-4.06,17.12-.11,26.94,10.09-13.36,19.43-25.62,28.65-38S704.13,371.42,716.47,361.58ZM883,425.3c6.61,3.51,11.92,5.56,16.33,8.83,6.84,5.08,13.18,4.29,20.47,1.12,13.42-5.83,23.35-16.13,34.12-25.36,11.66-10,19.87-22.58,26.07-36.54,2.08-4.71,3.73-9.44,2.51-14.47-48.36-12.14-121.94,22.8-142,54.11,8.4,1.19,16.55,2.79,23.77,6.44,7.56,3.83,13,1.44,18.76-3.18,17.19-13.78,36-25.18,54.54-37,3.16-2,6.13-4.71,13.06-3.4-12.55,8.45-23.63,15.54-34.31,23.2C905.33,407,893.07,413.52,883,425.3ZM311.78,614.73c9.82-5.67,17.39-10.67,25.5-14.55,7.51-3.6,10.55-9.36,11.75-17.08a316.06,316.06,0,0,0,2.25-81.34c-.26-2.52-.17-5.34-3.45-6.24C302,525.08,264.61,610.3,278,653.53c8.06-9.37,15.93-18.42,23.63-27.61a8.35,8.35,0,0,0,1.67-4.74c.5-11.33,4.42-22,6.8-32.88a221.55,221.55,0,0,1,14.48-42.9c1.59-3.58,2.79-7.78,10.36-8.58C322.47,561.83,316.86,586.87,311.78,614.73ZM139,580a183,183,0,0,1-19.56-33.25c-3.08-6.61-8.54-9.39-15.21-10.54-23-4-45.5-1.6-67.67,5.07-3.19,1-6.91,1.42-8.48,5.19,24.86,45.3,100,74.38,140.55,64.59-7.72-7.26-15.17-14.22-22.55-21.26-1.69-1.61-3.55-1.81-5.78-2-18.4-1.87-34.37-10.57-50.58-18.5-2.09-1-5.25-1.85-2.71-7.06C103.9,566.31,118.12,579.61,139,580ZM354.22,830.25c-13.93-20.8-13.93-20.79-35.38-22.89-.86-.08-1.71-.29-2.57-.31-13.57-.28-26.49,1.51-38,9.79-23.43,16.85-45.16,35.78-66.94,54.62-4.35,3.76-7.78,8.59-12.69,14.1,3-.48,4.25-.45,5.33-.91,14.73-6.18,29.5-12.19,45.43-14.69a20.23,20.23,0,0,0,11.14-6.21c17.68-17.88,39.64-26.86,63.94-31.34C333.79,830.7,343.22,831.14,354.22,830.25Z" fill="inherit"/></g></svg>