<svg xmlns="http://www.w3.org/2000/svg" xmlns:xlink="http://www.w3.org/1999/xlink" width="500" zoomAndPan="magnify" viewBox="0 0 375 374.999991" height="500" preserveAspectRatio="xMidYMid meet" version="1.0"><defs><g/><clipPath id="80de057501"><path d="M 56.417969 56.417969 L 318.582031 56.417969 L 318.582031 318.582031 L 56.417969 318.582031 Z M 56.417969 56.417969 " clip-rule="nonzero"/></clipPath><clipPath id="cf1f7c3ce1"><path d="M 187.5 56.417969 C 115.105469 56.417969 56.417969 115.105469 56.417969 187.5 C 56.417969 259.894531 115.105469 318.582031 187.5 318.582031 C 259.894531 318.582031 318.582031 259.894531 318.582031 187.5 C 318.582031 115.105469 259.894531 56.417969 187.5 56.417969 Z M 187.5 56.417969 " clip-rule="nonzero"/></clipPath><clipPath id="94940d56c8"><path d="M 56.417969 56.417969 L 318.578125 56.417969 L 318.578125 318.578125 L 56.417969 318.578125 Z M 56.417969 56.417969 " clip-rule="nonzero"/></clipPath><clipPath id="ce9de5d383"><path d="M 187.496094 56.417969 C 115.105469 56.417969 56.417969 115.105469 56.417969 187.496094 C 56.417969 259.890625 115.105469 318.578125 187.496094 318.578125 C 259.890625 318.578125 318.578125 259.890625 318.578125 187.496094 C 318.578125 115.105469 259.890625 56.417969 187.496094 56.417969 Z M 187.496094 56.417969 " clip-rule="nonzero"/></clipPath><clipPath id="db098e31f7"><path d="M 80.050781 80.050781 L 294.949219 80.050781 L 294.949219 294.949219 L 80.050781 294.949219 Z M 80.050781 80.050781 " clip-rule="nonzero"/></clipPath><clipPath id="9b466111ec"><path d="M 187.5 80.050781 C 128.15625 80.050781 80.050781 128.15625 80.050781 187.5 C 80.050781 246.84375 128.15625 294.949219 187.5 294.949219 C 246.84375 294.949219 294.949219 246.84375 294.949219 187.5 C 294.949219 128.15625 246.84375 80.050781 187.5 80.050781 Z M 187.5 80.050781 " clip-rule="nonzero"/></clipPath></defs><g clip-path="url(#80de057501)"><g clip-path="url(#cf1f7c3ce1)"><path fill="#000000" d="M 56.417969 56.417969 L 318.582031 56.417969 L 318.582031 318.582031 L 56.417969 318.582031 Z M 56.417969 56.417969 " fill-opacity="1" fill-rule="nonzero"/></g></g><g clip-path="url(#94940d56c8)"><g clip-path="url(#ce9de5d383)"><path stroke-linecap="butt" transform="matrix(0.75, 0, 0, 0.75, 56.417221, 56.417216)" fill="none" stroke-linejoin="miter" d="M 174.771842 0.00100327 C 78.251002 0.00100327 0.000997273 78.251008 0.000997273 174.771848 C 0.000997273 271.297896 78.251002 349.547901 174.771842 349.547901 C 271.29789 349.547901 349.547895 271.297896 349.547895 174.771848 C 349.547895 78.251008 271.29789 0.00100327 174.771842 0.00100327 Z M 174.771842 0.00100327 " stroke="#000000" stroke-width="4" stroke-opacity="1" stroke-miterlimit="4"/></g></g><g clip-path="url(#db098e31f7)"><g clip-path="url(#9b466111ec)"><path stroke-linecap="butt" transform="matrix(0.75, 0, 0, 0.75, 80.050686, 80.050682)" fill="none" stroke-linejoin="miter" d="M 143.265761 0.000132409 C 64.140756 0.000132409 0.000126409 64.140762 0.000126409 143.265767 C 0.000126409 222.390772 64.140756 286.531401 143.265761 286.531401 C 222.390766 286.531401 286.531395 222.390772 286.531395 143.265767 C 286.531395 64.140762 222.390766 0.000132409 143.265761 0.000132409 Z M 143.265761 0.000132409 " stroke="#ffffff" stroke-width="6" stroke-opacity="1" stroke-miterlimit="4"/></g></g><path stroke-linecap="butt" transform="matrix(0.387639, 0, 0, 0.387639, 119.30949, 116.049456)" fill="none" stroke-linejoin="miter" d="M 235.306302 101.035674 L 144.885155 302.001787 L 139.141251 302.001787 L 48.720104 101.035674 L 55.310478 101.035674 L 142.013203 294.222324 L 228.726004 101.035674 Z M 235.306302 101.035674 " stroke="#000000" stroke-width="11.843535" stroke-opacity="1" stroke-miterlimit="4"/><g fill="#ffffff" fill-opacity="1"><g transform="translate(137.080325, 233.116495)"><g><path d="M 73.453125 -77.90625 L 38.390625 0 L 36.171875 0 L 1.109375 -77.90625 L 3.671875 -77.90625 L 37.28125 -3 L 70.890625 -77.90625 Z M 73.453125 -77.90625 "/></g></g></g><path stroke-linecap="butt" transform="matrix(0.387639, 0, 0, 0.387639, 164.194256, 84.839613)" fill="none" stroke-linejoin="miter" d="M 38.204728 101.03285 L 114.256037 101.03285 C 135.14571 101.03285 153.576589 105.33574 169.558751 113.931442 C 185.540913 122.537222 197.975962 134.498651 206.853821 149.825806 C 215.771988 165.152961 220.23611 182.374597 220.23611 201.480637 C 220.23611 220.647139 215.771988 237.888929 206.853821 253.216084 C 197.975962 268.492854 185.540913 280.454283 169.558751 289.100371 C 153.576589 297.696073 135.14571 301.998963 114.256037 301.998963 L 38.204728 301.998963 Z M 113.691723 296.537215 C 133.785311 296.537215 151.430182 292.466097 166.616259 284.333938 C 181.852721 276.201779 193.622687 264.91551 201.94631 250.475133 C 210.31024 236.044833 214.492206 219.709975 214.492206 201.480637 C 214.492206 183.301684 210.31024 166.997057 201.94631 152.55668 C 193.622687 138.116303 181.852721 126.830034 166.616259 118.697875 C 151.430182 110.565716 133.785311 106.504675 113.691723 106.504675 L 43.948632 106.504675 L 43.948632 296.537215 Z M 113.691723 296.537215 " stroke="#000000" stroke-width="11.843535" stroke-opacity="1" stroke-miterlimit="4"/><g fill="#ffffff" fill-opacity="1"><g transform="translate(164.194256, 201.906652)"><g><path d="M 14.796875 -77.90625 L 44.296875 -77.90625 C 52.378906 -77.90625 59.519531 -76.234375 65.71875 -72.890625 C 71.914062 -69.554688 76.738281 -64.921875 80.1875 -58.984375 C 83.632812 -53.046875 85.359375 -46.367188 85.359375 -38.953125 C 85.359375 -31.535156 83.632812 -24.859375 80.1875 -18.921875 C 76.738281 -12.984375 71.914062 -8.34375 65.71875 -5 C 59.519531 -1.664062 52.378906 0 44.296875 0 L 14.796875 0 Z M 44.078125 -2.109375 C 51.867188 -2.109375 58.710938 -3.6875 64.609375 -6.84375 C 70.503906 -10 75.066406 -14.375 78.296875 -19.96875 C 81.523438 -25.570312 83.140625 -31.898438 83.140625 -38.953125 C 83.140625 -46.003906 81.523438 -52.328125 78.296875 -57.921875 C 75.066406 -63.523438 70.503906 -67.90625 64.609375 -71.0625 C 58.710938 -74.21875 51.867188 -75.796875 44.078125 -75.796875 L 17.03125 -75.796875 L 17.03125 -2.109375 Z M 44.078125 -2.109375 "/></g></g></g><path fill="#000000" d="M 97.691406 252.882812 C 97.363281 253.117188 97.019531 253.320312 96.652344 253.488281 C 96.289062 253.65625 95.910156 253.789062 95.519531 253.882812 C 95.128906 253.980469 94.734375 254.035156 94.332031 254.054688 C 93.929688 254.074219 93.53125 254.050781 93.132812 253.992188 C 92.734375 253.933594 92.347656 253.839844 91.96875 253.703125 C 91.589844 253.570312 91.226562 253.402344 90.878906 253.199219 C 90.53125 252.992188 90.210938 252.757812 89.910156 252.492188 C 89.609375 252.222656 89.335938 251.929688 89.089844 251.613281 C 87.332031 249.023438 85.679688 246.367188 84.136719 243.644531 C 82.59375 240.921875 81.167969 238.140625 79.855469 235.296875 C 78.542969 232.457031 77.347656 229.566406 76.273438 226.628906 C 75.199219 223.6875 74.246094 220.710938 73.417969 217.691406 C 72.589844 214.671875 71.886719 211.625 71.308594 208.550781 C 70.730469 205.472656 70.277344 202.378906 69.953125 199.265625 C 69.632812 196.152344 69.4375 193.03125 69.371094 189.902344 C 69.304688 186.773438 69.367188 183.648438 69.558594 180.523438 C 69.75 177.398438 70.070312 174.289062 70.519531 171.191406 C 70.964844 168.09375 71.542969 165.019531 72.242188 161.96875 C 72.945312 158.921875 73.769531 155.902344 74.71875 152.921875 C 75.667969 149.9375 76.738281 147 77.929688 144.105469 C 79.121094 141.214844 80.429688 138.375 81.855469 135.585938 C 83.28125 132.800781 84.820312 130.078125 86.472656 127.417969 C 88.121094 124.757812 89.878906 122.171875 91.742188 119.65625 C 93.605469 117.144531 95.566406 114.710938 97.632812 112.355469 C 99.695312 110.003906 101.851562 107.738281 104.105469 105.5625 C 106.355469 103.390625 108.691406 101.308594 111.113281 99.328125 C 113.535156 97.34375 116.03125 95.464844 118.609375 93.6875 C 121.183594 91.910156 123.832031 90.242188 126.542969 88.683594 C 129.257812 87.125 132.03125 85.679688 134.867188 84.351562 C 137.699219 83.019531 140.582031 81.808594 143.515625 80.714844 C 146.445312 79.625 149.417969 78.652344 152.433594 77.804688 C 155.445312 76.957031 158.488281 76.234375 161.558594 75.636719 C 164.632812 75.042969 167.722656 74.570312 170.835938 74.230469 C 173.945312 73.886719 177.066406 73.671875 180.195312 73.585938 C 183.324219 73.503906 186.449219 73.546875 189.574219 73.71875 C 192.699219 73.890625 195.8125 74.191406 198.914062 74.621094 C 202.011719 75.046875 205.089844 75.605469 208.144531 76.285156 C 211.199219 76.96875 214.222656 77.777344 217.207031 78.707031 C 220.195312 79.636719 223.140625 80.691406 226.042969 81.863281 C 228.945312 83.039062 231.792969 84.332031 234.585938 85.738281 C 234.933594 85.9375 235.261719 86.171875 235.566406 86.433594 C 235.867188 86.699219 236.144531 86.988281 236.390625 87.304688 C 236.640625 87.621094 236.855469 87.957031 237.035156 88.316406 C 237.21875 88.675781 237.363281 89.046875 237.476562 89.433594 C 237.585938 89.820312 237.65625 90.214844 237.691406 90.617188 C 237.726562 91.015625 237.71875 91.417969 237.675781 91.816406 C 237.632812 92.214844 237.550781 92.605469 237.433594 92.992188 C 237.3125 93.375 237.160156 93.742188 236.96875 94.097656 L 230.757812 104.90625 C 230.5625 105.273438 230.332031 105.621094 230.066406 105.945312 C 229.800781 106.269531 229.507812 106.5625 229.183594 106.824219 C 228.859375 107.089844 228.511719 107.320312 228.140625 107.511719 C 227.769531 107.707031 227.382812 107.863281 226.980469 107.976562 C 226.578125 108.09375 226.167969 108.167969 225.753906 108.203125 C 225.335938 108.238281 224.917969 108.226562 224.503906 108.179688 C 224.089844 108.128906 223.683594 108.039062 223.285156 107.90625 C 222.886719 107.773438 222.507812 107.605469 222.144531 107.394531 C 219.972656 106.339844 217.757812 105.375 215.503906 104.503906 C 213.25 103.628906 210.964844 102.847656 208.648438 102.160156 C 206.332031 101.46875 203.992188 100.878906 201.628906 100.378906 C 199.261719 99.882812 196.882812 99.480469 194.484375 99.179688 C 192.085938 98.875 189.679688 98.667969 187.265625 98.5625 C 184.851562 98.453125 182.4375 98.445312 180.023438 98.535156 C 177.605469 98.621094 175.199219 98.808594 172.800781 99.09375 C 170.398438 99.378906 168.015625 99.761719 165.648438 100.242188 C 163.277344 100.71875 160.933594 101.296875 158.609375 101.964844 C 156.289062 102.636719 154 103.398438 151.738281 104.253906 C 149.480469 105.113281 147.257812 106.058594 145.074219 107.097656 C 142.894531 108.136719 140.757812 109.257812 138.664062 110.472656 C 136.574219 111.683594 134.535156 112.976562 132.550781 114.355469 C 130.566406 115.734375 128.636719 117.1875 126.769531 118.722656 C 124.90625 120.257812 123.101562 121.867188 121.367188 123.546875 C 119.632812 125.226562 117.964844 126.976562 116.371094 128.792969 C 114.777344 130.609375 113.261719 132.488281 111.820312 134.429688 C 110.378906 136.371094 109.019531 138.367188 107.742188 140.417969 C 106.464844 142.46875 105.273438 144.566406 104.164062 146.714844 C 103.058594 148.863281 102.039062 151.054688 101.113281 153.285156 C 100.183594 155.515625 99.347656 157.78125 98.601562 160.082031 C 97.855469 162.378906 97.207031 164.703125 96.652344 167.058594 C 96.097656 169.410156 95.640625 171.78125 95.277344 174.167969 C 94.914062 176.558594 94.652344 178.960938 94.484375 181.371094 C 94.320312 183.78125 94.25 186.195312 94.28125 188.609375 C 94.3125 191.027344 94.4375 193.4375 94.664062 195.84375 C 94.890625 198.25 95.214844 200.644531 95.636719 203.023438 C 96.058594 205.402344 96.578125 207.761719 97.191406 210.097656 C 97.804688 212.4375 98.511719 214.746094 99.3125 217.027344 C 100.113281 219.304688 101.007812 221.550781 101.992188 223.757812 C 102.976562 225.964844 104.046875 228.125 105.207031 230.246094 C 106.367188 232.367188 107.613281 234.4375 108.941406 236.453125 C 109.195312 236.785156 109.414062 237.140625 109.597656 237.519531 C 109.777344 237.894531 109.921875 238.285156 110.027344 238.691406 C 110.128906 239.09375 110.191406 239.507812 110.210938 239.925781 C 110.234375 240.34375 110.210938 240.757812 110.148438 241.171875 C 110.085938 241.585938 109.984375 241.988281 109.839844 242.382812 C 109.695312 242.773438 109.511719 243.148438 109.292969 243.503906 C 109.074219 243.859375 108.820312 244.191406 108.535156 244.496094 C 108.25 244.800781 107.9375 245.074219 107.59375 245.316406 Z M 97.691406 252.882812 " fill-opacity="1" fill-rule="nonzero"/><g fill="#ffffff" fill-opacity="1"><g transform="translate(100.263253, 239.153243)"><g><path d="M -11.9375 -3.46875 L -2.484375 -4.40625 L -1.875 -3.34375 L -7.59375 4.28125 L -8.25 3.109375 L -3.546875 -3.125 L -11.34375 -2.390625 Z M -11.9375 -3.46875 "/></g></g></g><g fill="#ffffff" fill-opacity="1"><g transform="translate(92.770144, 224.533076)"><g><path d="M -4.359375 -5.71875 L -2.796875 -1.375 L -0.421875 -1.1875 L 0 0.015625 L -9.53125 -0.765625 L -9.9375 -1.9375 L -3.0625 -8.59375 L -2.640625 -7.375 Z M -5.140625 -4.984375 L -8.546875 -1.78125 L -3.890625 -1.453125 Z M -5.140625 -4.984375 "/></g></g></g><g fill="#ffffff" fill-opacity="1"><g transform="translate(87.798665, 208.589142)"><g><path d="M -8.8125 0.28125 L -9.03125 -0.921875 L -1.515625 -2.3125 L -2.375 -6.953125 L -1.3125 -7.140625 L -0.234375 -1.296875 Z M -8.8125 0.28125 "/></g></g></g><g fill="#ffffff" fill-opacity="1"><g transform="translate(85.648524, 193.742613)"><g><path d="M -1.25 -7.609375 L -0.171875 -7.640625 L -0.03125 -1.3125 L -8.75 -1.109375 L -8.890625 -7.25 L -7.8125 -7.28125 L -7.703125 -2.375 L -5.015625 -2.4375 L -5.109375 -6.8125 L -4.046875 -6.828125 L -3.953125 -2.453125 L -1.140625 -2.515625 Z M -1.25 -7.609375 "/></g></g></g><g fill="#ffffff" fill-opacity="1"><g transform="translate(85.847366, 177.83887)"><g><path d="M -7.328125 -9.984375 L 1.296875 -8.703125 L 1.140625 -7.703125 L -6.046875 -3.46875 L 0.375 -2.515625 L 0.1875 -1.296875 L -8.4375 -2.578125 L -8.28125 -3.578125 L -1.078125 -7.8125 L -7.515625 -8.765625 Z M -7.328125 -9.984375 "/></g></g></g><g fill="#ffffff" fill-opacity="1"><g transform="translate(89.190334, 160.479524)"><g><path d="M -6.328125 -5.25 L -7.25 -2.40625 L -8.28125 -2.734375 L -6.046875 -9.59375 L -5.015625 -9.265625 L -5.953125 -6.421875 L 1.3125 -4.0625 L 0.9375 -2.890625 Z M -6.328125 -5.25 "/></g></g></g><g fill="#ffffff" fill-opacity="1"><g transform="translate(94.422416, 146.436521)"><g><path d="M -7.28125 -4.984375 L -6.75 -6.09375 L 1.109375 -2.296875 L 0.578125 -1.1875 Z M -7.28125 -4.984375 "/></g></g></g><g fill="#ffffff" fill-opacity="1"><g transform="translate(99.724906, 136.225804)"><g><path d="M -2.25 -12.1875 L 4.953125 -7.265625 L 4.390625 -6.421875 L -3.9375 -5.78125 L 1.4375 -2.109375 L 0.734375 -1.078125 L -6.46875 -6 L -5.890625 -6.84375 L 2.4375 -7.5 L -2.9375 -11.171875 Z M -2.25 -12.1875 "/></g></g></g><g fill="#ffffff" fill-opacity="1"><g transform="translate(110.383777, 122.043544)"><g/></g></g><g fill="#ffffff" fill-opacity="1"><g transform="translate(118.072364, 114.174385)"><g><path d="M -4.453125 -7.625 L -1.578125 -9.921875 C -0.867188 -10.492188 -0.125 -10.859375 0.65625 -11.015625 C 1.445312 -11.179688 2.203125 -11.128906 2.921875 -10.859375 C 3.648438 -10.597656 4.28125 -10.132812 4.8125 -9.46875 C 5.351562 -8.800781 5.675781 -8.085938 5.78125 -7.328125 C 5.882812 -6.566406 5.769531 -5.816406 5.4375 -5.078125 C 5.113281 -4.347656 4.597656 -3.695312 3.890625 -3.125 L 1.015625 -0.828125 Z M 3.15625 -3.921875 C 3.707031 -4.359375 4.101562 -4.851562 4.34375 -5.40625 C 4.59375 -5.957031 4.671875 -6.515625 4.578125 -7.078125 C 4.492188 -7.640625 4.25 -8.171875 3.84375 -8.671875 C 3.4375 -9.179688 2.96875 -9.539062 2.4375 -9.75 C 1.90625 -9.957031 1.34375 -10 0.75 -9.875 C 0.15625 -9.75 -0.414062 -9.46875 -0.96875 -9.03125 L -2.8125 -7.546875 L 1.3125 -2.4375 Z M 3.15625 -3.921875 "/></g></g></g><g fill="#ffffff" fill-opacity="1"><g transform="translate(132.39565, 103.567171)"><g><path d="M 4.96875 -5.203125 L 0.90625 -2.984375 L 1.109375 -0.609375 L -0.015625 0 L -0.734375 -9.53125 L 0.34375 -10.125 L 8 -4.390625 L 6.859375 -3.765625 Z M 4.09375 -5.875 L 0.40625 -8.71875 L 0.8125 -4.0625 Z M 4.09375 -5.875 "/></g></g></g><g fill="#ffffff" fill-opacity="1"><g transform="translate(147.441561, 96.172197)"><g/></g></g><g fill="#ffffff" fill-opacity="1"><g transform="translate(157.899359, 92.636275)"><g><path d="M 3.765625 -0.765625 C 3.117188 -0.617188 2.476562 -0.578125 1.84375 -0.640625 C 1.207031 -0.703125 0.6875 -0.847656 0.28125 -1.078125 L 0.5 -2.140625 C 0.894531 -1.921875 1.363281 -1.773438 1.90625 -1.703125 C 2.457031 -1.628906 3 -1.65625 3.53125 -1.78125 C 4.238281 -1.9375 4.738281 -2.175781 5.03125 -2.5 C 5.320312 -2.820312 5.421875 -3.179688 5.328125 -3.578125 C 5.265625 -3.878906 5.117188 -4.097656 4.890625 -4.234375 C 4.660156 -4.367188 4.394531 -4.453125 4.09375 -4.484375 C 3.800781 -4.515625 3.378906 -4.535156 2.828125 -4.546875 C 2.171875 -4.554688 1.625 -4.59375 1.1875 -4.65625 C 0.75 -4.71875 0.351562 -4.875 0 -5.125 C -0.34375 -5.375 -0.578125 -5.773438 -0.703125 -6.328125 C -0.804688 -6.785156 -0.78125 -7.222656 -0.625 -7.640625 C -0.46875 -8.054688 -0.175781 -8.425781 0.25 -8.75 C 0.6875 -9.082031 1.265625 -9.332031 1.984375 -9.5 C 2.484375 -9.613281 2.992188 -9.660156 3.515625 -9.640625 C 4.035156 -9.617188 4.492188 -9.53125 4.890625 -9.375 L 4.734375 -8.3125 C 4.328125 -8.445312 3.90625 -8.53125 3.46875 -8.5625 C 3.03125 -8.59375 2.613281 -8.566406 2.21875 -8.484375 C 1.53125 -8.328125 1.039062 -8.082031 0.75 -7.75 C 0.46875 -7.414062 0.375 -7.050781 0.46875 -6.65625 C 0.539062 -6.351562 0.691406 -6.132812 0.921875 -6 C 1.160156 -5.863281 1.429688 -5.78125 1.734375 -5.75 C 2.046875 -5.71875 2.46875 -5.695312 3 -5.6875 C 3.675781 -5.6875 4.222656 -5.648438 4.640625 -5.578125 C 5.066406 -5.515625 5.453125 -5.359375 5.796875 -5.109375 C 6.140625 -4.859375 6.375 -4.460938 6.5 -3.921875 C 6.601562 -3.472656 6.578125 -3.035156 6.421875 -2.609375 C 6.265625 -2.191406 5.960938 -1.820312 5.515625 -1.5 C 5.066406 -1.175781 4.484375 -0.929688 3.765625 -0.765625 Z M 3.765625 -0.765625 "/></g></g></g><g fill="#ffffff" fill-opacity="1"><g transform="translate(173.046248, 89.851884)"><g><path d="M 0.546875 -8.796875 L 1.765625 -8.90625 L 2.53125 -0.21875 L 1.3125 -0.109375 Z M 0.546875 -8.796875 "/></g></g></g><g fill="#ffffff" fill-opacity="1"><g transform="translate(184.575743, 89.247728)"><g><path d="M 1.734375 -8.640625 L 2.96875 -8.578125 L 2.59375 -0.953125 L 7.296875 -0.71875 L 7.25 0.359375 L 1.3125 0.0625 Z M 1.734375 -8.640625 "/></g></g></g><g fill="#ffffff" fill-opacity="1"><g transform="translate(199.515756, 90.532861)"><g><path d="M 10.5 -6.6875 L 4.953125 1.046875 L 3.75 0.796875 L 1.796875 -8.53125 L 3.109375 -8.25 L 4.703125 -0.609375 L 9.28125 -6.9375 Z M 10.5 -6.6875 "/></g></g></g><g fill="#ffffff" fill-opacity="1"><g transform="translate(215.444396, 94.556296)"><g><path d="M 7.171875 0.515625 L 2.875 -1.1875 L 1.171875 0.46875 L -0.015625 0 L 6.875 -6.65625 L 8.03125 -6.203125 L 8.484375 3.375 L 7.28125 2.890625 Z M 7.140625 -0.578125 L 6.96875 -5.234375 L 3.65625 -1.96875 Z M 7.140625 -0.578125 "/></g></g></g><path fill="#000000" d="M 296.179688 209.410156 C 296.574219 209.488281 296.957031 209.605469 297.328125 209.761719 C 297.699219 209.914062 298.050781 210.101562 298.386719 210.324219 C 298.722656 210.546875 299.03125 210.800781 299.316406 211.082031 C 299.605469 211.367188 299.859375 211.671875 300.085938 212.003906 C 300.3125 212.339844 300.503906 212.6875 300.664062 213.058594 C 300.820312 213.425781 300.945312 213.808594 301.027344 214.203125 C 301.113281 214.59375 301.160156 214.992188 301.167969 215.394531 C 301.175781 215.796875 301.144531 216.195312 301.074219 216.589844 C 300.027344 221.101562 298.707031 225.527344 297.121094 229.875 C 295.535156 234.226562 293.6875 238.460938 291.582031 242.585938 C 289.480469 246.707031 287.132812 250.6875 284.542969 254.523438 C 281.957031 258.363281 279.144531 262.027344 276.109375 265.523438 C 273.070312 269.019531 269.835938 272.316406 266.398438 275.414062 C 262.960938 278.515625 259.347656 281.394531 255.558594 284.054688 C 251.769531 286.714844 247.835938 289.136719 243.75 291.316406 C 239.667969 293.496094 235.464844 295.421875 231.148438 297.089844 C 230.765625 297.210938 230.375 297.300781 229.976562 297.347656 C 229.578125 297.394531 229.175781 297.40625 228.777344 297.375 C 228.375 297.347656 227.980469 297.28125 227.59375 297.175781 C 227.203125 297.070312 226.832031 296.929688 226.46875 296.75 C 226.109375 296.574219 225.769531 296.363281 225.449219 296.121094 C 225.128906 295.875 224.835938 295.605469 224.570312 295.304688 C 224.300781 295.003906 224.066406 294.679688 223.859375 294.335938 C 223.65625 293.988281 223.488281 293.625 223.351562 293.246094 L 219.503906 281.394531 C 219.359375 281 219.257812 280.597656 219.195312 280.183594 C 219.132812 279.769531 219.113281 279.351562 219.136719 278.933594 C 219.15625 278.515625 219.21875 278.105469 219.324219 277.703125 C 219.429688 277.296875 219.574219 276.90625 219.757812 276.53125 C 219.941406 276.152344 220.160156 275.800781 220.414062 275.46875 C 220.667969 275.136719 220.953125 274.832031 221.269531 274.558594 C 221.585938 274.285156 221.925781 274.042969 222.289062 273.835938 C 222.652344 273.632812 223.035156 273.464844 223.433594 273.335938 C 226.679688 272.023438 229.839844 270.523438 232.910156 268.839844 C 235.980469 267.152344 238.941406 265.292969 241.789062 263.261719 C 244.640625 261.226562 247.363281 259.03125 249.957031 256.675781 C 252.546875 254.320312 254.992188 251.820312 257.289062 249.175781 C 259.585938 246.53125 261.71875 243.761719 263.6875 240.867188 C 265.660156 237.96875 267.453125 234.96875 269.066406 231.859375 C 270.683594 228.753906 272.109375 225.5625 273.347656 222.285156 C 274.585938 219.007812 275.628906 215.671875 276.476562 212.273438 C 276.546875 211.859375 276.660156 211.460938 276.8125 211.070312 C 276.964844 210.679688 277.15625 210.3125 277.382812 209.960938 C 277.613281 209.609375 277.871094 209.285156 278.164062 208.984375 C 278.457031 208.6875 278.777344 208.421875 279.125 208.1875 C 279.472656 207.953125 279.835938 207.753906 280.222656 207.59375 C 280.609375 207.433594 281.007812 207.316406 281.417969 207.234375 C 281.828125 207.15625 282.246094 207.117188 282.664062 207.121094 C 283.082031 207.121094 283.496094 207.167969 283.902344 207.253906 Z M 296.179688 209.410156 " fill-opacity="1" fill-rule="nonzero"/><g fill="#ffffff" fill-opacity="1"><g transform="translate(231.99694, 287.073543)"><g><path d="M 4.734375 -2.1875 C 3.941406 -1.8125 3.144531 -1.640625 2.34375 -1.671875 C 1.539062 -1.710938 0.8125 -1.953125 0.15625 -2.390625 C -0.488281 -2.828125 -1 -3.425781 -1.375 -4.1875 C -1.738281 -4.945312 -1.890625 -5.71875 -1.828125 -6.5 C -1.765625 -7.28125 -1.5 -7.992188 -1.03125 -8.640625 C -0.5625 -9.296875 0.0625 -9.816406 0.84375 -10.203125 C 1.457031 -10.492188 2.066406 -10.660156 2.671875 -10.703125 C 3.285156 -10.753906 3.867188 -10.660156 4.421875 -10.421875 L 4.03125 -9.375 C 3.144531 -9.707031 2.257812 -9.660156 1.375 -9.234375 C 0.789062 -8.953125 0.328125 -8.566406 -0.015625 -8.078125 C -0.359375 -7.585938 -0.550781 -7.050781 -0.59375 -6.46875 C -0.632812 -5.882812 -0.519531 -5.304688 -0.25 -4.734375 C 0.03125 -4.160156 0.414062 -3.707031 0.90625 -3.375 C 1.394531 -3.039062 1.9375 -2.859375 2.53125 -2.828125 C 3.125 -2.796875 3.710938 -2.921875 4.296875 -3.203125 C 5.171875 -3.628906 5.75 -4.304688 6.03125 -5.234375 L 7.125 -4.859375 C 6.957031 -4.285156 6.664062 -3.769531 6.25 -3.3125 C 5.84375 -2.863281 5.335938 -2.488281 4.734375 -2.1875 Z M 4.734375 -2.1875 "/></g></g></g><g fill="#ffffff" fill-opacity="1"><g transform="translate(247.592161, 278.649549)"><g><path d="M -3.9375 -7.875 L -2.9375 -8.59375 L 1.453125 -2.34375 L 5.3125 -5.0625 L 5.9375 -4.1875 L 1.078125 -0.75 Z M -3.9375 -7.875 "/></g></g></g><g fill="#ffffff" fill-opacity="1"><g transform="translate(260.40562, 268.85545)"><g><path d="M 3.390625 -6.34375 L 0.078125 -3.109375 L 0.90625 -0.890625 L -0.015625 0.015625 L -3.28125 -8.984375 L -2.40625 -9.859375 L 6.515625 -6.390625 L 5.59375 -5.484375 Z M 2.375 -6.765625 L -1.96875 -8.515625 L -0.3125 -4.140625 Z M 2.375 -6.765625 "/></g></g></g><g fill="#ffffff" fill-opacity="1"><g transform="translate(272.6051, 255.831335)"><g><path d="M 2.34375 -3.03125 C 1.957031 -2.507812 1.5 -2.0625 0.96875 -1.6875 C 0.445312 -1.320312 -0.0390625 -1.097656 -0.5 -1.015625 L -1.015625 -1.9375 C -0.566406 -2.03125 -0.113281 -2.226562 0.34375 -2.53125 C 0.800781 -2.84375 1.1875 -3.21875 1.5 -3.65625 C 1.9375 -4.25 2.160156 -4.757812 2.171875 -5.1875 C 2.179688 -5.625 2.019531 -5.960938 1.6875 -6.203125 C 1.445312 -6.378906 1.191406 -6.441406 0.921875 -6.390625 C 0.660156 -6.347656 0.40625 -6.242188 0.15625 -6.078125 C -0.0820312 -5.910156 -0.414062 -5.644531 -0.84375 -5.28125 C -1.34375 -4.851562 -1.773438 -4.519531 -2.140625 -4.28125 C -2.515625 -4.050781 -2.914062 -3.914062 -3.34375 -3.875 C -3.78125 -3.832031 -4.226562 -3.976562 -4.6875 -4.3125 C -5.0625 -4.59375 -5.320312 -4.941406 -5.46875 -5.359375 C -5.625 -5.773438 -5.644531 -6.25 -5.53125 -6.78125 C -5.414062 -7.3125 -5.140625 -7.878906 -4.703125 -8.484375 C -4.398438 -8.890625 -4.050781 -9.257812 -3.65625 -9.59375 C -3.257812 -9.925781 -2.851562 -10.15625 -2.4375 -10.28125 L -1.875 -9.375 C -2.28125 -9.21875 -2.65625 -9.003906 -3 -8.734375 C -3.34375 -8.472656 -3.628906 -8.1875 -3.859375 -7.875 C -4.285156 -7.300781 -4.5 -6.789062 -4.5 -6.34375 C -4.5 -5.90625 -4.332031 -5.566406 -4 -5.328125 C -3.757812 -5.148438 -3.503906 -5.085938 -3.234375 -5.140625 C -2.960938 -5.191406 -2.695312 -5.304688 -2.4375 -5.484375 C -2.1875 -5.671875 -1.863281 -5.925781 -1.46875 -6.25 C -0.945312 -6.695312 -0.503906 -7.03125 -0.140625 -7.25 C 0.222656 -7.476562 0.617188 -7.613281 1.046875 -7.65625 C 1.472656 -7.695312 1.90625 -7.554688 2.34375 -7.234375 C 2.71875 -6.960938 2.984375 -6.613281 3.140625 -6.1875 C 3.296875 -5.757812 3.3125 -5.273438 3.1875 -4.734375 C 3.0625 -4.203125 2.78125 -3.632812 2.34375 -3.03125 Z M 2.34375 -3.03125 "/></g></g></g><g fill="#ffffff" fill-opacity="1"><g transform="translate(281.781769, 242.174005)"><g><path d="M 2.53125 -7.28125 L 3.484375 -6.796875 L 0.59375 -1.171875 L -7.171875 -5.140625 L -4.375 -10.609375 L -3.40625 -10.125 L -5.640625 -5.75 L -3.25 -4.515625 L -1.25 -8.40625 L -0.3125 -7.921875 L -2.3125 -4.03125 L 0.203125 -2.75 Z M 2.53125 -7.28125 "/></g></g></g><g fill="#ffffff" fill-opacity="1"><g transform="translate(288.902513, 226.669317)"><g><path d="M 1.28125 -3.625 C 1.070312 -3 0.773438 -2.425781 0.390625 -1.90625 C 0.015625 -1.394531 -0.378906 -1.023438 -0.796875 -0.796875 L -1.578125 -1.53125 C -1.179688 -1.75 -0.8125 -2.078125 -0.46875 -2.515625 C -0.132812 -2.960938 0.113281 -3.441406 0.28125 -3.953125 C 0.5 -4.648438 0.546875 -5.203125 0.421875 -5.609375 C 0.296875 -6.015625 0.0390625 -6.28125 -0.34375 -6.40625 C -0.625 -6.5 -0.882812 -6.484375 -1.125 -6.359375 C -1.363281 -6.234375 -1.570312 -6.050781 -1.75 -5.8125 C -1.9375 -5.570312 -2.171875 -5.21875 -2.453125 -4.75 C -2.796875 -4.175781 -3.109375 -3.722656 -3.390625 -3.390625 C -3.671875 -3.054688 -4.007812 -2.800781 -4.40625 -2.625 C -4.800781 -2.457031 -5.265625 -2.460938 -5.796875 -2.640625 C -6.242188 -2.785156 -6.601562 -3.03125 -6.875 -3.375 C -7.15625 -3.71875 -7.328125 -4.160156 -7.390625 -4.703125 C -7.453125 -5.253906 -7.367188 -5.878906 -7.140625 -6.578125 C -6.984375 -7.066406 -6.765625 -7.523438 -6.484375 -7.953125 C -6.203125 -8.390625 -5.890625 -8.742188 -5.546875 -9.015625 L -4.71875 -8.3125 C -5.050781 -8.039062 -5.335938 -7.722656 -5.578125 -7.359375 C -5.828125 -7.003906 -6.015625 -6.632812 -6.140625 -6.25 C -6.359375 -5.582031 -6.394531 -5.039062 -6.25 -4.625 C -6.113281 -4.207031 -5.851562 -3.9375 -5.46875 -3.8125 C -5.1875 -3.71875 -4.925781 -3.738281 -4.6875 -3.875 C -4.445312 -4.007812 -4.234375 -4.195312 -4.046875 -4.4375 C -3.859375 -4.6875 -3.625 -5.035156 -3.34375 -5.484375 C -3 -6.054688 -2.691406 -6.503906 -2.421875 -6.828125 C -2.148438 -7.160156 -1.816406 -7.414062 -1.421875 -7.59375 C -1.023438 -7.769531 -0.566406 -7.773438 -0.046875 -7.609375 C 0.390625 -7.460938 0.75 -7.210938 1.03125 -6.859375 C 1.320312 -6.503906 1.492188 -6.050781 1.546875 -5.5 C 1.597656 -4.957031 1.507812 -4.332031 1.28125 -3.625 Z M 1.28125 -3.625 "/></g></g></g></svg>